{
  "accessors": [
    {
      "bufferView": 2,
      "componentType": 5126,
      "count": 2448,
      "max": [
        249.12030029296875,
        20.215700149536133,
        93.80269622802734
      ],
      "min": [
        -95.46510314941406,
        -9.534700393676758,
        -306.7107849121094
      ],
      "type": "VEC3"
    },
    {
      "bufferView": 2,
      "byteOffset": 29376,
      "componentType": 5126,
      "count": 2448,
      "max": [
        1.0,
        1.0,
        1.0
      ],
      "min": [
        -1.0,
        -1.0,
        -1.0
      ],
      "type": "VEC3"
    },
    {
      "bufferView": 1,
      "componentType": 5126,
      "count": 2448,
      "max": [
        1.0,
        1.0
      ],
      "min": [
        0.0,
        0.0
      ],
      "type": "VEC2"
    },
    {
      "bufferView": 0,
      "componentType": 5125,
      "count": 13824,
      "type": "SCALAR"
    },
    {
      "bufferView": 2,
      "byteOffset": 58752,
      "componentType": 5126,
      "count": 4032,
      "max": [
        217.13427734375,
        21.673709869384766,
        28.56361961364746
      ],
      "min": [
        -39.73590850830078,
        7.844099998474121,
        -240.5513916015625
      ],
      "type": "VEC3"
    },
    {
      "bufferView": 2,
      "byteOffset": 107136,
      "componentType": 5126,
      "count": 4032,
      "max": [
        0.9995965957641602,
        0.9998623728752136,
        0.9984036684036255
      ],
      "min": [
        -0.9966444373130798,
        -0.9993661046028137,
        -0.9981655478477478
      ],
      "type": "VEC3"
    },
    {
      "bufferView": 1,
      "byteOffset": 19584,
      "componentType": 5126,
      "count": 4032,
      "max": [
        1.0,
        1.0
      ],
      "min": [
        0.0,
        0.0
      ],
      "type": "VEC2"
    },
    {
      "bufferView": 0,
      "byteOffset": 55296,
      "componentType": 5125,
      "count": 16128,
      "type": "SCALAR"
    },
    {
      "bufferView": 2,
      "byteOffset": 155520,
      "componentType": 5126,
      "count": 9324,
      "max": [
        222.02708435058594,
        21.893110275268555,
        48.18111038208008
      ],
      "min": [
        -61.39210891723633,
        -5.007900238037109,
        -259.335205078125
      ],
      "type": "VEC3"
    },
    {
      "bufferView": 2,
      "byteOffset": 267408,
      "componentType": 5126,
      "count": 9324,
      "max": [
        0.9997734427452087,
        0.9999662041664124,
        0.9955719709396362
      ],
      "min": [
        -0.9998389482498169,
        -1.0,
        -0.9975662231445313
      ],
      "type": "VEC3"
    },
    {
      "bufferView": 1,
      "byteOffset": 51840,
      "componentType": 5126,
      "count": 9324,
      "max": [
        1.0277999639511108,
        1.0
      ],
      "min": [
        0.007600000128149986,
        0.0
      ],
      "type": "VEC2"
    },
    {
      "bufferView": 0,
      "byteOffset": 119808,
      "componentType": 5125,
      "count": 51840,
      "type": "SCALAR"
    }
  ],
  "asset": {
    "extras": {
      "author": "Arline Tjandra (https://sketchfab.com/arlinetjandra)",
      "license": "CC-BY-4.0 (http://creativecommons.org/licenses/by/4.0/)",
      "source": "https://sketchfab.com/3d-models/cookies-09029fb67251446b8b9bc3b3f468976a",
      "title": "Cookies"
    },
    "generator": "Sketchfab-12.67.0",
    "version": "2.0"
  },
  "bufferViews": [
    {
      "buffer": 0,
      "byteLength": 327168,
      "name": "floatBufferViews",
      "target": 34963
    },
    {
      "buffer": 0,
      "byteLength": 126432,
      "byteOffset": 327168,
      "byteStride": 8,
      "name": "floatBufferViews",
      "target": 34962
    },
    {
      "buffer": 0,
      "byteLength": 379296,
      "byteOffset": 453600,
      "byteStride": 12,
      "name": "floatBufferViews",
      "target": 34962
    }
  ],
  "buffers": [
    {
      "byteLength": 832896,
      "uri": "scene.bin"
    }
  ],
  "materials": [
    {
      "doubleSided": true,
      "name": "03___Default",
      "pbrMetallicRoughness": {
        "baseColorFactor": [
          0.5881999731063843,
          0.5881999731063843,
          0.5881999731063843,
          1.0
        ],
        "metallicFactor": 0.0,
        "roughnessFactor": 0.6
      }
    },
    {
      "doubleSided": true,
      "name": "02___Default",
      "pbrMetallicRoughness": {
        "baseColorFactor": [
          0.06669999659061432,
          0.027499999850988388,
          0.0,
          1.0
        ],
        "metallicFactor": 0.0,
        "roughnessFactor": 0.6
      }
    },
    {
      "doubleSided": true,
      "name": "01___Default",
      "pbrMetallicRoughness": {
        "baseColorFactor": [
          0.40389999747276306,
          0.2549000084400177,
          0.13729999959468842,
          1.0
        ],
        "metallicFactor": 0.0,
        "roughnessFactor": 0.6
      }
    }
  ],
  "meshes": [
    {
      "name": "Box008_0",
      "primitives": [
        {
          "attributes": {
            "NORMAL": 1,
            "POSITION": 0,
            "TEXCOORD_0": 2
          },
          "indices": 3,
          "material": 0,
          "mode": 4
        }
      ]
    },
    {
      "name": "Box008_1",
      "primitives": [
        {
          "attributes": {
            "NORMAL": 5,
            "POSITION": 4,
            "TEXCOORD_0": 6
          },
          "indices": 7,
          "material": 1,
          "mode": 4
        }
      ]
    },
    {
      "name": "Box008_2",
      "primitives": [
        {
          "attributes": {
            "NORMAL": 9,
            "POSITION": 8,
            "TEXCOORD_0": 10
          },
          "indices": 11,
          "material": 2,
          "mode": 4
        }
      ]
    }
  ],
  "nodes": [
    {
      "children": [
        1
      ],
      "matrix": [
        1.0,
        0.0,
        0.0,
        0.0,
        0.0,
        2.220446049250313e-16,
        -1.0,
        0.0,
        0.0,
        1.0,
        2.220446049250313e-16,
        0.0,
        0.0,
        0.0,
        0.0,
        1.0
      ],
      "name": "Sketchfab_model"
    },
    {
      "children": [
        2
      ],
      "name": "Root"
    },
    {
      "children": [
        3,
        4,
        5
      ],
      "matrix": [
        0.004790000000000001,
        0.0,
        0.0,
        0.0,
        0.0,
        -0.0,
        0.004790000000000001,
        0.0,
        0.0,
        -0.004790000000000001,
        -0.0,
        0.0,
        0.0,
        0.0,
        0.0,
        1.0
      ],
      "name": "Box008"
    },
    {
      "mesh": 0,
      "name": "Box008_0"
    },
    {
      "mesh": 1,
      "name": "Box008_1"
    },
    {
      "mesh": 2,
      "name": "Box008_2"
    }
  ],
  "scene": 0,
  "scenes": [
    {
      "name": "Sketchfab_Scene",
      "nodes": [
        0
      ]
    }
  ]
}
